<?xml version="1.0" encoding="UTF-8"?>
<svg version="1.1" xmlns="http://www.w3.org/2000/svg" width="200" height="200" style="border-radius: 50%;">
<path d="M0 0 C66 0 132 0 200 0 C200 66 200 132 200 200 C134 200 68 200 0 200 C0 134 0 68 0 0 Z " fill="#4097FE" transform="translate(0,0)"/>
<path d="M0 0 C12.95621877 -0.44926486 24.00171977 2.78095757 34.6171875 10.19140625 C35.32488281 10.66578125 36.03257812 11.14015625 36.76171875 11.62890625 C44.45155464 17.03972768 49.47582014 23.49730254 53.9296875 31.69140625 C54.43628906 32.61651001 54.43628906 32.61651001 54.953125 33.56030273 C59.1771313 41.65880873 59.94115051 49.12390947 59.8671875 58.12890625 C59.87878906 59.5355957 59.87878906 59.5355957 59.890625 60.97070312 C59.86542725 70.03559366 58.43391764 77.66122936 54.0546875 85.62890625 C53.70390137 86.27214844 53.35311523 86.91539063 52.99169922 87.578125 C44.71582777 102.20626721 30.98789865 112.40715174 14.8671875 117.00390625 C-0.42317624 120.43443658 -15.62548716 117.4482153 -29.3828125 110.19140625 C-32.11253746 108.27000395 -34.75976177 106.25550721 -37.3828125 104.19140625 C-37.40263184 105.30177246 -37.42245117 106.41213867 -37.44287109 107.55615234 C-37.51882331 111.66755227 -37.6075561 115.77859343 -37.70019531 119.88964844 C-37.73852815 121.67050098 -37.77337339 123.45143209 -37.8046875 125.23242188 C-37.85024521 127.78934859 -37.90825357 130.34573235 -37.96875 132.90234375 C-37.98607681 134.10085464 -37.98607681 134.10085464 -38.00375366 135.32357788 C-38.15506909 140.96366284 -38.15506909 140.96366284 -40.3828125 143.19140625 C-43.10978473 143.36311528 -45.72187718 143.42386305 -48.4453125 143.37890625 C-49.19103516 143.37826172 -49.93675781 143.37761719 -50.70507812 143.37695312 C-56.24253091 143.33168784 -56.24253091 143.33168784 -57.3828125 142.19140625 C-57.49941802 139.30790721 -57.55084033 136.44805315 -57.55981445 133.56347656 C-57.56638565 132.65762314 -57.57295685 131.75176971 -57.57972717 130.81846619 C-57.5995308 127.80215376 -57.61114504 124.78589155 -57.62109375 121.76953125 C-57.62516928 120.73858086 -57.6292448 119.70763046 -57.63344383 118.64543915 C-57.65434531 113.17752785 -57.66862324 107.70964188 -57.67797852 102.24169922 C-57.6889867 96.61651446 -57.72330974 90.99173146 -57.76315022 85.36668777 C-57.78943443 81.02550575 -57.79768132 76.68441712 -57.80125999 72.34316254 C-57.80610398 70.27172923 -57.81765481 68.20029947 -57.83629799 66.1289444 C-58.00499071 46.12529574 -54.64466286 30.51957628 -40.2578125 15.62890625 C-31.14894153 7.19140625 -31.14894153 7.19140625 -25.3828125 7.19140625 C-25.3828125 6.53140625 -25.3828125 5.87140625 -25.3828125 5.19140625 C-16.82930224 1.12281177 -9.32530795 0.52764445 0 0 Z " fill="#F9FDFD" transform="translate(97.3828125,28.80859375)"/>
<path d="M0 0 C5.08563551 4.12788871 7.961564 8.5741952 10.76171875 14.43359375 C11.15488281 15.1090625 11.54804688 15.78453125 11.953125 16.48046875 C16.43056985 24.78012262 16.00281629 34.95268929 13.51171875 43.87109375 C11.02563471 50.86465727 8.39685999 56.43880947 2.76171875 61.43359375 C2.2203125 62.00078125 1.67890625 62.56796875 1.12109375 63.15234375 C-6.46309177 70.67279662 -15.94708615 72.78440346 -26.36328125 72.93359375 C-38.06678203 72.77923436 -46.80439425 68.66600204 -55.109375 60.62109375 C-64.23299177 50.88923587 -66.57945651 41.26826252 -66.37890625 28.34375 C-65.96758691 16.90678719 -60.62457588 8.34627822 -52.42578125 0.49609375 C-37.14191728 -12.52780862 -15.86669704 -11.10391887 0 0 Z " fill="#4098FD" transform="translate(124.23828125,55.56640625)"/>
<path d="M0 0 C1.32 0 2.64 0 4 0 C3.71253906 0.71027344 3.42507812 1.42054687 3.12890625 2.15234375 C2.02296925 4.94206026 0.96837769 7.74424502 -0.0625 10.5625 C-0.40410156 11.49191406 -0.74570312 12.42132813 -1.09765625 13.37890625 C-2.35649267 17.03552632 -3.12538133 20.21171498 -3.12025452 24.08758545 C-3.12162918 24.89242874 -3.12300385 25.69727203 -3.12442017 26.52650452 C-3.12082489 27.40044357 -3.11722961 28.27438263 -3.11352539 29.17480469 C-3.11367142 30.101978 -3.11381744 31.02915131 -3.1139679 31.98442078 C-3.11327162 35.04692937 -3.10549249 38.10937704 -3.09765625 41.171875 C-3.09579106 43.2960812 -3.09436763 45.42028784 -3.09336853 47.54449463 C-3.08955131 53.13402495 -3.07972778 58.72352927 -3.06866455 64.31304932 C-3.05843337 70.01728972 -3.05386725 75.72153432 -3.04882812 81.42578125 C-3.03810482 92.61719892 -3.02103791 103.8085973 -3 115 C-0.37493198 115.02690844 2.24986173 115.04679404 4.875 115.0625 C5.99455078 115.07506836 5.99455078 115.07506836 7.13671875 115.08789062 C11.19845578 115.20688084 11.19845578 115.20688084 15 114 C13.567753 118.29674099 13.567753 118.29674099 11 120 C8.16943421 120.05538697 5.60930635 119.9635167 2.8125 119.6875 C2.06291016 119.62626953 1.31332031 119.56503906 0.54101562 119.50195312 C-1.30722745 119.34891389 -3.1538335 119.17633121 -5 119 C-7.31415807 108.54520748 -7.25922056 98.31068812 -7.1953125 87.671875 C-7.19157461 85.82814692 -7.18873131 83.98441683 -7.18673706 82.14068604 C-7.17916167 77.32719273 -7.15956673 72.51382333 -7.1373291 67.70037842 C-7.11673816 62.77292557 -7.10770723 57.84545238 -7.09765625 52.91796875 C-7.07631411 43.27859189 -7.04225329 33.63930632 -7 24 C-6.34 24 -5.68 24 -5 24 C-5.03480469 23.1646875 -5.03480469 23.1646875 -5.0703125 22.3125 C-5.19993277 16.83141448 -4.68192907 12.23266821 -3 7 C-2.34 6.67 -1.68 6.34 -1 6 C-0.34227572 2.97065509 -0.34227572 2.97065509 0 0 Z " fill="#4A95EB" transform="translate(44,56)"/>
<path d="M0 0 C0.33 0 0.66 0 1 0 C1.01030746 0.71187973 1.02061493 1.42375946 1.03123474 2.1572113 C1.12904898 8.85282826 1.23154004 15.54835518 1.33933926 22.24381924 C1.3945988 25.6863574 1.44802347 29.128904 1.49731445 32.5715332 C1.55400801 36.52564526 1.61857495 40.47960944 1.68359375 44.43359375 C1.70030624 45.67523788 1.71701874 46.91688202 1.73423767 48.19615173 C1.75418289 49.33725906 1.77412811 50.47836639 1.79467773 51.65405273 C1.81022202 52.664431 1.8257663 53.67480927 1.84178162 54.71580505 C1.7464473 56.96529889 1.7464473 56.96529889 3 58 C5.16883817 57.96210363 7.33656024 57.84505485 9.5 57.6875 C11.27890625 57.56955078 11.27890625 57.56955078 13.09375 57.44921875 C14.0528125 57.30097656 15.011875 57.15273437 16 57 C17.58230808 53.83538385 17.24157813 50.40920633 17.31640625 46.9296875 C17.33718735 46.13345978 17.35796844 45.33723206 17.37937927 44.51687622 C17.44484149 41.96967315 17.50374415 39.42236575 17.5625 36.875 C17.6056884 35.14972873 17.64930279 33.42446807 17.69335938 31.69921875 C17.80051945 27.46625315 17.90179623 23.23318247 18 19 C18.66 19.33 19.32 19.66 20 20 C19.9065993 25.37547591 19.8005365 30.75049421 19.68261719 36.12548828 C19.64428223 37.95484529 19.60943737 39.78427885 19.578125 41.61376953 C19.53257195 44.24018759 19.47456269 46.86607659 19.4140625 49.4921875 C19.39673569 50.72350906 19.39673569 50.72350906 19.37905884 51.97970581 C19.22774341 57.77225659 19.22774341 57.77225659 17 60 C14.27302777 60.17170903 11.66093532 60.2324568 8.9375 60.1875 C8.19177734 60.18685547 7.44605469 60.18621094 6.67773438 60.18554688 C1.14028159 60.14028159 1.14028159 60.14028159 0 59 C-0.09381302 57.15881971 -0.11743954 55.31402359 -0.11352539 53.47045898 C-0.11344986 52.28931015 -0.11337433 51.10816132 -0.11329651 49.89122009 C-0.10813522 48.6058284 -0.10297394 47.32043671 -0.09765625 45.99609375 C-0.0962413 44.68794205 -0.09482635 43.37979034 -0.09336853 42.03199768 C-0.0895441 38.54837141 -0.07971446 35.06478661 -0.06866455 31.58117676 C-0.05844882 28.02873292 -0.05387056 24.47628241 -0.04882812 20.92382812 C-0.03809212 13.94920168 -0.0210166 6.97460283 0 0 Z " fill="#D5F1FE" transform="translate(40,112)"/>
<path d="M0 0 C0.33 0 0.66 0 1 0 C1.33 29.37 1.66 58.74 2 89 C11.31720681 89.84370962 11.31720681 89.84370962 20 88 C19 91 19 91 16 94 C10.72 93.67 5.44 93.34 0 93 C0 62.31 0 31.62 0 0 Z " fill="#7BB2EB" transform="translate(39,82)"/>
<path d="M0 0 C7.54591837 5.6377551 7.54591837 5.6377551 9 10 C8.34 10 7.68 10 7 10 C6.34 9.01 5.68 8.02 5 7 C2.94996045 5.80767387 2.94996045 5.80767387 1 5 C1 4.34 1 3.68 1 3 C0.46375 2.731875 -0.0725 2.46375 -0.625 2.1875 C-2.35032203 1.32483898 -4.05656694 0.42369076 -5.75 -0.5 C-12.2749236 -3.5115032 -18.47168985 -4.34458511 -25.5625 -4.3125 C-26.63661133 -4.33666992 -26.63661133 -4.33666992 -27.73242188 -4.36132812 C-32.85864187 -4.36599257 -36.45503241 -3.40409482 -41 -1 C-41.33 -0.34 -41.66 0.32 -42 1 C-44.62581138 2.57548683 -45.87099787 3 -49 3 C-49 3.66 -49 4.32 -49 5 C-50.65 5.66 -52.3 6.32 -54 7 C-40.9507323 -10.39902359 -17.50853143 -10.5936296 0 0 Z " fill="#5F9BDD" transform="translate(122,54)"/>
<path d="M0 0 C0.33 0.99 0.66 1.98 1 3 C0.34 3.66 -0.32 4.32 -1 5 C-1.74504315 6.97928445 -2.4250677 8.98348412 -3.0625 11 C-4.92715232 16.85430464 -4.92715232 16.85430464 -6 19 C-6.09932028 21.55311555 -6.14112683 24.07235343 -6.125 26.625 C-6.12306641 27.346875 -6.12113281 28.06875 -6.11914062 28.8125 C-6.08012086 33.61626696 -5.79092426 38.25445446 -5 43 C-4.34 43 -3.68 43 -3 43 C-2.67 43.99 -2.34 44.98 -2 46 C-1.34 46.33 -0.68 46.66 0 47 C0.309375 47.78375 0.61875 48.5675 0.9375 49.375 C1.98373709 51.95982105 2.92113535 53.2046169 5 55 C4.67 55.66 4.34 56.32 4 57 C-6.10250314 46.5772446 -9.36135641 37.13524804 -9.140625 22.91015625 C-8.80541342 13.58941211 -5.23541075 7.61514291 0 0 Z " fill="#5D9CE0" transform="translate(67,61)"/>
<path d="M0 0 C0.84240234 0.00064453 1.68480469 0.00128906 2.55273438 0.00195312 C11.78057345 0.06588734 18.94533815 0.61237241 27.0625 5.1875 C27.0625 5.8475 27.0625 6.5075 27.0625 7.1875 C25.57363281 6.754375 25.57363281 6.754375 24.0546875 6.3125 C14.87406296 3.75790133 6.65333594 2.62399613 -2.9375 3.1875 C-4.56751953 3.25324219 -4.56751953 3.25324219 -6.23046875 3.3203125 C-12.17900225 3.6602287 -16.60090074 4.5759727 -21.9375 7.1875 C-22.9275 7.1875 -23.9175 7.1875 -24.9375 7.1875 C-24.9375 6.1975 -24.9375 5.2075 -24.9375 4.1875 C-22.6275 4.1875 -20.3175 4.1875 -17.9375 4.1875 C-17.9375 3.5275 -17.9375 2.8675 -17.9375 2.1875 C-11.81189466 0.39584896 -6.36382558 -0.09208887 0 0 Z " fill="#60A0E5" transform="translate(96.9375,26.8125)"/>
<path d="M0 0 C0.99 0.33 1.98 0.66 3 1 C-4.99497437 9.51144559 -13.45952042 12.94451138 -25.06079102 13.46777344 C-35.25128511 13.62686808 -43.84636726 11.17031667 -52 5 C-51.34 4.67 -50.68 4.34 -50 4 C-48.32111559 4.97934924 -46.65661761 5.98343919 -45 7 C-40.70432413 8.68091665 -36.57356933 9.45117168 -32 10 C-32 10.66 -32 11.32 -32 12 C-30.72125 11.71125 -29.4425 11.4225 -28.125 11.125 C-24.64965011 10.35636021 -21.17225144 9.59991115 -17.6875 8.875 C-16.88699219 8.70742187 -16.08648437 8.53984375 -15.26171875 8.3671875 C-13 8 -13 8 -9 8 C-9 7.34 -9 6.68 -9 6 C-7.68 6 -6.36 6 -5 6 C-5 5.34 -5 4.68 -5 4 C-4.01 4 -3.02 4 -2 4 C-2 3.01 -2 2.02 -2 1 C-1.34 0.67 -0.68 0.34 0 0 Z " fill="#5B9ADF" transform="translate(125,115)"/>
<path d="M0 0 C1.98 0 3.96 0 6 0 C6.33 1.32 6.66 2.64 7 4 C7.66 4 8.32 4 9 4 C9 4.66 9 5.32 9 6 C9.556875 6.2475 10.11375 6.495 10.6875 6.75 C15.55305947 9.38003214 18.27055097 12.25313212 21 17 C21.721875 17.639375 22.44375 18.27875 23.1875 18.9375 C25 21 25 21 25.25 24.25 C25.1675 25.1575 25.085 26.065 25 27 C25.66 27 26.32 27 27 27 C28.78409802 30.06246747 29.22880021 32.22079273 29.125 35.75 C29.10695312 36.54921875 29.08890625 37.3484375 29.0703125 38.171875 C29.04710937 38.77515625 29.02390625 39.3784375 29 40 C27.5253288 37.16109554 26.31924119 34.3031863 25.1875 31.3125 C22.21335931 23.84410226 19.04673404 17.44206063 13 12 C12.236875 11.195625 11.47375 10.39125 10.6875 9.5625 C7.81689374 6.82541031 4.79236277 4.54239696 1.57421875 2.234375 C1.05472656 1.82703125 0.53523437 1.4196875 0 1 C0 0.67 0 0.34 0 0 Z " fill="#5498E6" transform="translate(128,36)"/>
<path d="M0 0 C3.95811875 3.95811875 3.24843567 8.80516432 3.25097656 14.09594727 C3.11577514 22.6412918 0.65267163 30.78749417 -4 38 C-6.25 40 -6.25 40 -8 41 C-8 39.68 -8 38.36 -8 37 C-7.01 37 -6.02 37 -5 37 C-5.04125 36.236875 -5.0825 35.47375 -5.125 34.6875 C-5 32 -5 32 -3 29 C-2.34 29 -1.68 29 -1 29 C-0.04531742 22.62542652 0.1202324 16.43938347 0.0625 10 C0.05798828 9.03449219 0.05347656 8.06898437 0.04882812 7.07421875 C0.03715417 4.71607911 0.02078021 2.35807398 0 0 Z " fill="#609FE1" transform="translate(136,74)"/>
<path d="M0 0 C0.83402344 0.39832031 1.66804688 0.79664063 2.52734375 1.20703125 C15.23375135 7.18908569 26.04833233 9.72072087 40 11 C40 11.33 40 11.66 40 12 C39.01604248 11.99214478 39.01604248 11.99214478 38.01220703 11.98413086 C35.04981437 11.96338728 32.08743697 11.95034824 29.125 11.9375 C28.09246094 11.92912109 27.05992188 11.92074219 25.99609375 11.91210938 C25.00996094 11.90888672 24.02382812 11.90566406 23.0078125 11.90234375 C22.09660645 11.89710693 21.18540039 11.89187012 20.24658203 11.88647461 C17.96312491 11.85114435 17.96312491 11.85114435 16 13 C16 11.68 16 10.36 16 9 C15.0409375 8.87625 15.0409375 8.87625 14.0625 8.75 C9.79458483 7.70479628 5.96892333 5.85908174 2 4 C2 3.34 2 2.68 2 2 C1.34 2 0.68 2 0 2 C0 1.34 0 0.68 0 0 Z " fill="#5A9AE2" transform="translate(64,136)"/>
<path d="M0 0 C0.33 1.32 0.66 2.64 1 4 C0.06027344 4.27263672 0.06027344 4.27263672 -0.8984375 4.55078125 C-1.71570313 4.80214844 -2.53296875 5.05351562 -3.375 5.3125 C-4.59316406 5.67794922 -4.59316406 5.67794922 -5.8359375 6.05078125 C-8.33184629 6.91368185 -8.33184629 6.91368185 -10 10 C-13.125 10.1875 -13.125 10.1875 -16 10 C-16 10.66 -16 11.32 -16 12 C-19.98196457 13.05404945 -22.98195309 12.84098656 -27 12 C-24.21695338 10.50434909 -21.62001898 9.58074676 -18.5625 8.8125 C-11.86633467 6.89073058 -6.01289326 3.43997812 0 0 Z " fill="#5399E0" transform="translate(133,135)"/>
<path d="M0 0 C1.65 1.32 3.3 2.64 5 4 C3.68 4 2.36 4 1 4 C1.00785522 5.67340454 1.00785522 5.67340454 1.01586914 7.38061523 C1.03391775 11.50479333 1.04543149 15.62896791 1.05493164 19.75317383 C1.05997218 21.54094021 1.06680454 23.32870245 1.07543945 25.11645508 C1.0875173 27.68051168 1.09323094 30.24451397 1.09765625 32.80859375 C1.10281754 33.6127623 1.10797882 34.41693085 1.11329651 35.24546814 C1.11349215 37.16401715 1.06201983 39.08245368 1 41 C0 42 0 42 -3.59765625 42.09765625 C-5.08596867 42.0909822 -6.57426432 42.07902183 -8.0625 42.0625 C-9.20041992 42.05573242 -9.20041992 42.05573242 -10.36132812 42.04882812 C-12.24091871 42.0370068 -14.12046899 42.01907078 -16 42 C-16 41.67 -16 41.34 -16 41 C-11.05 40.67 -6.1 40.34 -1 40 C-0.67 26.8 -0.34 13.6 0 0 Z " fill="#4F8FD6" transform="translate(59,132)"/>
<path d="M0 0 C1.13583456 3.71727674 0.66670026 5.47051709 -1 9 C-1.66 9 -2.32 9 -3 9 C-3.19335938 9.61488281 -3.38671875 10.22976562 -3.5859375 10.86328125 C-3.84632813 11.67152344 -4.10671875 12.47976562 -4.375 13.3125 C-4.63023437 14.11300781 -4.88546875 14.91351563 -5.1484375 15.73828125 C-6.25173139 18.66858933 -7.1807423 20.60278415 -10.0625 22 C-12.35342991 22.89698316 -12.35342991 22.89698316 -13 26 C-16.5625 27.1875 -16.5625 27.1875 -20 28 C-19.319375 27.34 -18.63875 26.68 -17.9375 26 C-16.95616606 25.00212673 -15.97722257 24.0018999 -15 23 C-14.46890625 22.47664063 -13.9378125 21.95328125 -13.390625 21.4140625 C-7.42763842 15.15019128 -3.8408959 7.66183909 0 0 Z " fill="#5E9BDF" transform="translate(154,107)"/>
<path d="M0 0 C1.32 0 2.64 0 4 0 C4 0.66 4 1.32 4 2 C4.66 2 5.32 2 6 2 C6.33 3.32 6.66 4.64 7 6 C5.68 6 4.36 6 3 6 C3 4.35 3 2.7 3 1 C2.34 1 1.68 1 1 1 C1 12.55 1 24.1 1 36 C0.67 36 0.34 36 0 36 C0 24.12 0 12.24 0 0 Z " fill="#4597EF" transform="translate(60,136)"/>
<path d="M0 0 C0.33 0 0.66 0 1 0 C1.02688151 1.64574566 1.04634123 3.29161413 1.0625 4.9375 C1.07410156 5.85402344 1.08570313 6.77054687 1.09765625 7.71484375 C1 10 1 10 0 11 C-0.15980437 13.44608998 -0.25929447 15.86731058 -0.31640625 18.31640625 C-0.33718735 19.04746078 -0.35796844 19.77851532 -0.37937927 20.53172302 C-0.44495024 22.87521656 -0.50379432 25.21882539 -0.5625 27.5625 C-0.60567808 29.14779855 -0.64929213 30.73308529 -0.69335938 32.31835938 C-0.8006392 36.21212037 -0.9018849 40.10599772 -1 44 C-1.33 44 -1.66 44 -2 44 C-2.04974332 39.01954576 -2.08588098 34.03923879 -2.10986328 29.05859375 C-2.11986984 27.36716184 -2.13347931 25.67574701 -2.15087891 23.984375 C-2.17536403 21.54162358 -2.18653672 19.09910251 -2.1953125 16.65625 C-2.20563507 15.91008423 -2.21595764 15.16391846 -2.22659302 14.3951416 C-2.22766432 9.28804846 -1.40327286 4.91388283 0 0 Z " fill="#ECFFFF" transform="translate(42,68)"/>
<path d="M0 0 C0.66 0.33 1.32 0.66 2 1 C2.0289337 4.79165074 2.04677601 8.58327327 2.0625 12.375 C2.07087891 13.45523438 2.07925781 14.53546875 2.08789062 15.6484375 C2.09111328 16.6796875 2.09433594 17.7109375 2.09765625 18.7734375 C2.10289307 19.72653809 2.10812988 20.67963867 2.11352539 21.66162109 C2 24 2 24 1 26 C0.34 26 -0.32 26 -1 26 C-0.67 17.42 -0.34 8.84 0 0 Z " fill="#5D9CE1" transform="translate(157,76)"/>
<path d="M0 0 C1.32 0 2.64 0 4 0 C3.566875 1.06541016 3.566875 1.06541016 3.125 2.15234375 C1.65903251 5.86307395 0.33485852 9.61940238 -1 13.37890625 C-1.8769567 15.67749198 -2.85409543 17.8258507 -4 20 C-5.51750995 15.14396816 -4.49713908 11.72780763 -3 7 C-2.34 6.67 -1.68 6.34 -1 6 C-0.34227572 2.97065509 -0.34227572 2.97065509 0 0 Z " fill="#579AE6" transform="translate(44,56)"/>
<path d="M0 0 C0.33 0.99 0.66 1.98 1 3 C0.443125 3.226875 -0.11375 3.45375 -0.6875 3.6875 C-3.21008639 4.92616653 -3.21008639 4.92616653 -5.0625 7.625 C-9.4342763 11.15962765 -13.58150363 10.42702686 -19 10 C-16.08455103 8.4783107 -13.14224849 7.27338079 -10.0625 6.125 C-6.14129196 4.58431855 -3.11407189 2.90646709 0 0 Z " fill="#E5F9FD" transform="translate(125,118)"/>
<path d="M0 0 C0.66 0.66 1.32 1.32 2 2 C4.70631694 2.1720611 7.2971394 2.23239017 10 2.1875 C10.73734375 2.18685547 11.4746875 2.18621094 12.234375 2.18554688 C16.2479229 2.22791704 16.2479229 2.22791704 20 1 C18.567753 5.29674099 18.567753 5.29674099 16 7 C13.16943421 7.05538697 10.60930635 6.9635167 7.8125 6.6875 C7.06291016 6.62626953 6.31332031 6.56503906 5.54101562 6.50195312 C3.69277255 6.34891389 1.8461665 6.17633121 0 6 C0 4.02 0 2.04 0 0 Z " fill="#5DA2EE" transform="translate(39,169)"/>
<path d="M0 0 C4.25414629 0.57341863 7.09867744 2.05426072 10.6875 4.375 C11.64011719 4.98085938 12.59273437 5.58671875 13.57421875 6.2109375 C16 8 16 8 18 11 C16.35 11 14.7 11 13 11 C13 10.01 13 9.02 13 8 C12.01 8 11.02 8 10 8 C10 7.34 10 6.68 10 6 C9.278125 5.7525 8.55625 5.505 7.8125 5.25 C4.75286734 3.89016326 2.5326262 2.17082246 0 0 Z " fill="#DCF4FE" transform="translate(119,33)"/>
<path d="M0 0 C1.98 0 3.96 0 6 0 C6.33 1.32 6.66 2.64 7 4 C7.66 4 8.32 4 9 4 C9 4.66 9 5.32 9 6 C9.639375 6.2475 10.27875 6.495 10.9375 6.75 C13 8 13 8 13.62890625 10.078125 C13.81259766 11.02945313 13.81259766 11.02945313 14 12 C13.57589844 11.62488281 13.15179688 11.24976563 12.71484375 10.86328125 C9.59416289 8.14040147 6.46049801 5.55916392 3.0625 3.1875 C2.051875 2.465625 1.04125 1.74375 0 1 C0 0.67 0 0.34 0 0 Z " fill="#63A0E2" transform="translate(128,36)"/>
<path d="M0 0 C1.32 0.33 2.64 0.66 4 1 C3.54109375 1.51949219 3.0821875 2.03898437 2.609375 2.57421875 C-0.68382608 6.31712166 -3.92952189 10.06978801 -7 14 C-6.67 12.02 -6.34 10.04 -6 8 C-5.34 8 -4.68 8 -4 8 C-4 7.01 -4 6.02 -4 5 C-3.34 5 -2.68 5 -2 5 C-1.34 3.35 -0.68 1.7 0 0 Z " fill="#DEF4FD" transform="translate(68,56)"/>
<path d="M0 0 C0.33 1.32 0.66 2.64 1 4 C-8.41002278 7.25968109 -8.41002278 7.25968109 -13 8 C-10.59310197 5.27324841 -8.07528977 3.88033404 -4.8125 2.3125 C-3.91144531 1.87550781 -3.01039063 1.43851563 -2.08203125 0.98828125 C-1.39496094 0.66214844 -0.70789063 0.33601562 0 0 Z " fill="#68A5E5" transform="translate(133,135)"/>
<path d="M0 0 C12.95867769 6.87603306 12.95867769 6.87603306 15 13 C14.34 13 13.68 13 13 13 C12.34 12.01 11.68 11.02 11 10 C8.94996045 8.80767387 8.94996045 8.80767387 7 8 C7 7.34 7 6.68 7 6 C4.66785852 4.79371992 2.50357861 3.8345262 0 3 C0 2.01 0 1.02 0 0 Z " fill="#61A0DE" transform="translate(116,51)"/>
<path d="M0 0 C-0.99 1.485 -0.99 1.485 -2 3 C-3.97119141 3.2487793 -3.97119141 3.2487793 -6.3515625 3.07421875 C-7.20234375 3.01943359 -8.053125 2.96464844 -8.9296875 2.90820312 C-9.81914063 2.83537109 -10.70859375 2.76253906 -11.625 2.6875 C-12.5221875 2.62626953 -13.419375 2.56503906 -14.34375 2.50195312 C-16.56386306 2.34843467 -18.78194979 2.18056839 -21 2 C-21 1.67 -21 1.34 -21 1 C-18.62515638 0.83079995 -16.25016522 0.66457137 -13.875 0.5 C-13.20984375 0.45230469 -12.5446875 0.40460938 -11.859375 0.35546875 C-7.89764586 0.08358538 -3.97061445 -0.04947806 0 0 Z " fill="#4199EE" transform="translate(110,147)"/>
<path d="M0 0 C1.65 0.33 3.3 0.66 5 1 C2.14723863 3.93200474 -0.65079784 6.64315404 -4 9 C-3.35455571 5.51460083 -1.89865603 2.97180943 0 0 Z " fill="#E3F6FE" transform="translate(136,127)"/>
<path d="M0 0 C3 1 3 1 5 4 C6.42963299 8.1384113 7.29887873 10.80858283 6 15 C4.99539469 12.87717331 3.99644398 10.75166979 3 8.625 C2.443125 7.44164063 1.88625 6.25828125 1.3125 5.0390625 C0 2 0 2 0 0 Z " fill="#D0EEFC" transform="translate(132,64)"/>
<path d="M0 0 C0.33 0 0.66 0 1 0 C1.375 2.1875 1.375 2.1875 1 5 C-0.83961648 6.99022836 -2.79186148 8.38989899 -5 10 C-5 6.62972148 -4.50175992 5.93297304 -2.5625 3.3125 C-1.88380859 2.37857422 -1.88380859 2.37857422 -1.19140625 1.42578125 C-0.79824219 0.95527344 -0.40507813 0.48476563 0 0 Z " fill="#DEF2FD" transform="translate(54,48)"/>
<path d="M0 0 C12.25773196 3.88659794 12.25773196 3.88659794 15 8 C9.3723345 6.34921812 4.67132966 4.59333051 0 1 C0 0.67 0 0.34 0 0 Z " fill="#649EE0" transform="translate(73,119)"/>
<path d="M0 0 C0.33 0 0.66 0 1 0 C1.25 2.75 1.25 2.75 1 6 C-1 8.375 -1 8.375 -3 10 C-3.33 9.34 -3.66 8.68 -4 8 C-3.22265625 6.0546875 -3.22265625 6.0546875 -2.0625 3.875 C-1.49208984 2.78832031 -1.49208984 2.78832031 -0.91015625 1.6796875 C-0.60980469 1.12539063 -0.30945312 0.57109375 0 0 Z " fill="#D7F1FC" transform="translate(47,58)"/>
<path d="M0 0 C1.97566188 1.97566188 2.89579072 3.52337094 4.125 6 C4.47820313 6.70125 4.83140625 7.4025 5.1953125 8.125 C6 10 6 10 6 12 C3 11 3 11 1 9 C0.5859375 6.8359375 0.5859375 6.8359375 0.375 4.375 C0.30023438 3.55773437 0.22546875 2.74046875 0.1484375 1.8984375 C0.09945312 1.27195312 0.05046875 0.64546875 0 0 Z " fill="#D4EFFD" transform="translate(59,100)"/>
<path d="M0 0 C0 3.60573896 -0.81707462 4.41336566 -3 7.1875 C-3.556875 7.90292969 -4.11375 8.61835937 -4.6875 9.35546875 C-5.120625 9.89816406 -5.55375 10.44085938 -6 11 C-6.33 10.01 -6.66 9.02 -7 8 C-6.34 7.34 -5.68 6.68 -5 6 C-4.5359375 4.7315625 -4.5359375 4.7315625 -4.0625 3.4375 C-3.711875 2.633125 -3.36125 1.82875 -3 1 C-2.01 0.67 -1.02 0.34 0 0 Z " fill="#579CDF" transform="translate(55,45)"/>
<path d="M0 0 C-2.49505962 2.49505962 -3.67328888 2.35948376 -7.125 2.625 C-8.03507812 2.69976562 -8.94515625 2.77453125 -9.8828125 2.8515625 C-10.93082031 2.92503906 -10.93082031 2.92503906 -12 3 C-8.2699487 -0.7300513 -5.02945658 -1.43698759 0 0 Z " fill="#D1EDFC" transform="translate(87,31)"/>
<path d="M0 0 C0.33 0.99 0.66 1.98 1 3 C0.01 3.495 0.01 3.495 -1 4 C-0.67 2.68 -0.34 1.36 0 0 Z M-1 4 C-1 4.66 -1 5.32 -1 6 C-2.32 6 -3.64 6 -5 6 C-5.33 6.99 -5.66 7.98 -6 9 C-6.66 9 -7.32 9 -8 9 C-8 8.01 -8 7.02 -8 6 C-5 4 -5 4 -1 4 Z " fill="#4993F0" transform="translate(142,129)"/>
<path d="M0 0 C0 0.66 0 1.32 0 2 C-2.64458379 3.32229189 -4.67761301 3.09677194 -7.625 3.0625 C-8.62789063 3.05347656 -9.63078125 3.04445313 -10.6640625 3.03515625 C-11.43492188 3.02355469 -12.20578125 3.01195313 -13 3 C-8.72816203 0.15210802 -5.07638947 0 0 0 Z " fill="#4E92E7" transform="translate(112,124)"/>
<path d="M0 0 C0.99 0.33 1.98 0.66 3 1 C0.03 5.95 0.03 5.95 -3 11 C-3.33 10.01 -3.66 9.02 -4 8 C-3.67 7.34 -3.34 6.68 -3 6 C-2.34 6 -1.68 6 -1 6 C-0.67 4.02 -0.34 2.04 0 0 Z " fill="#D9F1FE" transform="translate(149,112)"/>
<path d="M0 0 C0.33 0 0.66 0 1 0 C1.08153933 1.58246707 1.13943557 3.16616273 1.1875 4.75 C1.23970703 6.07257813 1.23970703 6.07257813 1.29296875 7.421875 C0.94923684 10.44671583 -0.00227459 11.75583602 -2 14 C-1.85795259 12.41632253 -1.71119847 10.83306682 -1.5625 9.25 C-1.48128906 8.36828125 -1.40007813 7.4865625 -1.31640625 6.578125 C-1.03761535 4.30649548 -0.61209423 2.20148177 0 0 Z " fill="#D9F3FE" transform="translate(42,68)"/>
<path d="M0 0 C0.66 0.33 1.32 0.66 2 1 C1.01 2.485 1.01 2.485 0 4 C-2.1640625 4.29296875 -2.1640625 4.29296875 -4.625 4.1875 C-5.44226563 4.16042969 -6.25953125 4.13335937 -7.1015625 4.10546875 C-8.04128906 4.05326172 -8.04128906 4.05326172 -9 4 C-6.04245816 2.5086438 -3.13948098 1.07403297 0 0 Z " fill="#CBEAFC" transform="translate(115,124)"/>
<path d="M0 0 C0.33 1.32 0.66 2.64 1 4 C-0.1875 5.8125 -0.1875 5.8125 -2 7 C-3.32 6.67 -4.64 6.34 -6 6 C-4.02 4.02 -2.04 2.04 0 0 Z " fill="#D4EEFD" transform="translate(61,41)"/>
<path d="M0 0 C3.48331435 3.01887244 4.79157144 5.56909529 6 10 C2.46413986 6.82679218 0.41421969 4.83256305 0 0 Z " fill="#C8EAFD" transform="translate(145,52)"/>
<path d="M0 0 C1.8125 1.375 1.8125 1.375 2.8125 5.375 C-1.6425 3.395 -1.6425 3.395 -6.1875 1.375 C-2.1875 -0.625 -2.1875 -0.625 0 0 Z " fill="#D7F0FB" transform="translate(120.1875,49.625)"/>
<path d="M0 0 C0.99 0 1.98 0 3 0 C2.67 0.99 2.34 1.98 2 3 C1.195625 3.12375 0.39125 3.2475 -0.4375 3.375 C-1.7059375 3.684375 -1.7059375 3.684375 -3 4 C-3.33 4.66 -3.66 5.32 -4 6 C-5.32 5.67 -6.64 5.34 -8 5 C-4.93882432 2.37613513 -4.26826873 2 0 2 C0 1.34 0 0.68 0 0 Z " fill="#CFEAFC" transform="translate(72,34)"/>
<path d="M0 0 C0 3 0 3 -1 6 C-4.5625 7.1875 -4.5625 7.1875 -8 8 C-5.33333333 5.33333333 -2.66666667 2.66666667 0 0 Z " fill="#6CA2E4" transform="translate(142,127)"/>
<path d="M0 0 C5.875 4.625 5.875 4.625 7 8 C5.35 7.67 3.7 7.34 2 7 C1.34 4.69 0.68 2.38 0 0 Z " fill="#D4EAFC" transform="translate(138,44)"/>
<path d="M0 0 C6.52307692 0.61538462 6.52307692 0.61538462 8.9375 2.5625 C9.288125 3.036875 9.63875 3.51125 10 4 C5.78087253 3.5205537 3.20336822 2.83374881 0 0 Z " fill="#D8F1FE" transform="translate(70,139)"/>
<path d="M0 0 C-2.17424117 2.50037734 -3.73045798 3.43628586 -7 4 C-7 3.01 -7 2.02 -7 1 C-4.53721199 -0.231394 -2.7204945 -0.07159196 0 0 Z " fill="#E0F8FE" transform="translate(131,136)"/>
<path d="M0 0 C3.96 1.98 3.96 1.98 8 4 C4 5 4 5 1.75 4.0625 C1.1725 3.711875 0.595 3.36125 0 3 C0 2.01 0 1.02 0 0 Z " fill="#CCEAFD" transform="translate(75,121)"/>
</svg>
